<svg width="164" height="148" viewBox="0 0 164 148" fill="none" xmlns="http://www.w3.org/2000/svg">
<path d="M139.4 141.4C139.4 141.4 139.7 141.1 139.4 141.4L135.8 101.4L133.8 99.1C82.6 32.5 82.3 33.1 80 33.1H78.7L77.7 33.4C76.4 34.4 57.7 47.8 45.6 57L43 59L98.4 131.2L126.6 141.4H0V148H164V141.4H139.4V141.4ZM52.5 60.1C58.7 55.5 73.8 44.3 79.7 39.8C86.3 48 109.9 78.2 126.9 100.2L99.7 122.2L52.5 60.1ZM104.6 126.3L129.2 106.6L132.5 136.5L104.6 126.3V126.3Z" fill="#FAE20F"/>
<path d="M38 53.5L76.7 25.6L74.7 23C74.5 22.3 63 8.2 60 4.3C57 0.999999 53.4 0 51.1 0C49.1 0 47.8 0.700001 47.5 0.700001L46.9 1C46.6 1.3 36.4 7.2 28.5 14.1C22.3 19.4 21.6 22.6 21.3 25.3C20.3 30.6 28.8 42.4 36.4 51.2L38 53.5V53.5ZM27.6 25.6C27.6 24.9 27.6 23.3 32.5 19C39.1 13.4 47.9 7.8 49.6 6.9H50.9C52.5 6.9 53.5 7.6 54.8 8.9C57.1 11.5 64 20 67.2 24.6L39.3 44.6C33.4 37.1 27.5 28.5 27.5 26.6C27.6 26.3 27.6 25.9 27.6 25.6V25.6Z" fill="#FAE20F"/>
<path d="M67.9 62.7C67.6 62 66.6 62 65.6 62.7L64 64C63 64.7 62.7 65.6 63.3 66.3L94.5 107.6C94.8 108.3 95.8 108.3 96.8 107.6L98.4 106.3C99.4 105.6 99.7 104.7 99.1 104L67.9 62.7Z" fill="#FAE20F"/>
</svg>
