<svg width="146" height="200" viewBox="0 0 146 200" fill="none" xmlns="http://www.w3.org/2000/svg">
<path d="M130.576 200H15.4235C7.06923 200 0.274574 193.204 0.274574 184.848V15.1522C0.274574 6.79791 7.06923 0 15.4235 0H98.2815C102.329 0 106.135 1.57588 108.996 4.43816L141.289 36.7315C142.7 38.1352 143.819 39.8049 144.581 41.644C145.342 43.4831 145.731 45.455 145.725 47.4455V184.849C145.727 193.204 138.931 200 130.576 200V200ZM15.4235 6.0612C13.0132 6.06378 10.7024 7.02241 8.99806 8.72674C7.29373 10.4311 6.33511 12.7419 6.33252 15.1522V184.849C6.33554 187.26 7.2943 189.57 8.99853 191.274C10.7028 192.979 13.0134 193.937 15.4235 193.94H130.575C132.985 193.938 135.297 192.98 137.001 191.275C138.706 189.571 139.665 187.26 139.667 184.849V47.4455C139.67 46.251 139.437 45.0678 138.979 43.9643C138.522 42.8609 137.851 41.859 137.004 41.0168L104.71 8.72344C103.868 7.87689 102.867 7.20571 101.763 6.74874C100.66 6.29178 99.4773 6.05809 98.2832 6.0612H15.4235V6.0612Z" fill="#FAE20F"/>
<path d="M142.697 45.4549H115.424C107.07 45.4549 100.275 38.6586 100.275 30.3027V3.02979H106.335V30.3027C106.338 32.7129 107.297 35.0235 109.001 36.7277C110.705 38.4319 113.016 39.3907 115.426 39.3937H142.699V45.4549H142.697Z" fill="#FAE20F"/>
<path d="M34.282 134.597V140.658H26.871V134.597H34.282Z" fill="#FAE20F"/>
<path d="M46.4028 134.597V140.658H38.9901V134.597H46.4028V134.597Z" fill="#FAE20F"/>
<path d="M58.5252 134.597V140.658H51.1125V134.597H58.5252V134.597Z" fill="#FAE20F"/>
<path d="M70.6459 134.597V140.658H63.2349V134.597H70.6459Z" fill="#FAE20F"/>
<path d="M82.7667 134.597V140.658H75.3541V134.597H82.7667Z" fill="#FAE20F"/>
<path d="M94.8891 134.597V140.658H87.4765V134.597H94.8891Z" fill="#FAE20F"/>
<path d="M107.008 134.597V140.658H99.5956V134.597H107.008Z" fill="#FAE20F"/>
<path d="M119.131 134.597V140.658H111.718V134.597H119.131Z" fill="#FAE20F"/>
<path d="M34.282 67.9303V73.9915H26.871V67.9303H34.282Z" fill="#FAE20F"/>
<path d="M46.4028 67.9303V73.9915H38.9901V67.9303H46.4028V67.9303Z" fill="#FAE20F"/>
<path d="M58.5252 67.9303V73.9915H51.1125V67.9303H58.5252V67.9303Z" fill="#FAE20F"/>
<path d="M70.6459 67.9303V73.9915H63.2349V67.9303H70.6459Z" fill="#FAE20F"/>
<path d="M82.7667 67.9303V73.9915H75.3541V67.9303H82.7667Z" fill="#FAE20F"/>
<path d="M94.8891 67.9303V73.9915H87.4765V67.9303H94.8891Z" fill="#FAE20F"/>
<path d="M107.008 67.9303V73.9915H99.5956V67.9303H107.008Z" fill="#FAE20F"/>
<path d="M119.131 67.9303V73.9915H111.718V67.9303H119.131Z" fill="#FAE20F"/>
<path d="M119.877 159.344V162.374H57.4502V159.344H119.877Z" fill="#FAE20F"/>
<path d="M45.331 159.344V162.374H26.1245V159.344H45.331Z" fill="#FAE20F"/>
<path d="M57.4518 168.435H45.331C44.9295 168.435 44.5444 168.276 44.2604 167.992C43.9765 167.708 43.817 167.323 43.817 166.921V154.8C43.8168 154.602 43.8558 154.405 43.9318 154.221C44.0078 154.037 44.1193 153.87 44.26 153.729C44.4006 153.589 44.5676 153.477 44.7514 153.401C44.9352 153.325 45.1322 153.286 45.331 153.286H57.4518C58.2877 153.286 58.9659 153.965 58.9659 154.8V166.921C58.9661 167.12 58.9271 167.317 58.8511 167.501C58.7751 167.685 58.6635 167.852 58.5229 167.992C58.3823 168.133 58.2153 168.244 58.0315 168.32C57.8477 168.396 57.6507 168.435 57.4518 168.435V168.435ZM46.8467 165.405H55.9377V156.315H46.8467V165.405Z" fill="#FAE20F"/>
<path d="M83.3489 122.476H50.5303C49.257 122.475 48.0362 121.969 47.1359 121.068C46.2355 120.168 45.7292 118.947 45.7279 117.674V90.9147C45.7287 89.6413 46.235 88.4203 47.1354 87.5198C48.0359 86.6194 49.2569 86.1131 50.5303 86.1123H83.3489C84.6222 86.1136 85.843 86.6199 86.7433 87.5203C87.6437 88.4207 88.1501 89.6414 88.1514 90.9147V117.672C88.1505 118.946 87.6443 120.167 86.7439 121.068C85.8435 121.968 84.6225 122.475 83.3489 122.476V122.476ZM51.7874 116.415H82.0918V92.1735H51.7874V116.415V116.415Z" fill="#FAE20F"/>
<path d="M97.2424 116.415C96.9203 116.415 96.5967 116.365 96.2828 116.259L84.1556 112.216L86.073 106.467L94.2109 109.18V99.4056L86.0795 102.117L84.1621 96.3677L96.2828 92.3263C96.7384 92.1746 97.2236 92.1333 97.6983 92.2057C98.173 92.2782 98.6236 92.4624 99.0132 92.7432C99.4028 93.024 99.7201 93.3933 99.9389 93.8207C100.158 94.2481 100.272 94.7214 100.272 95.2016V113.384C100.273 113.782 100.194 114.176 100.042 114.544C99.8903 114.912 99.6672 115.246 99.3858 115.527C99.1044 115.809 98.7702 116.032 98.4024 116.185C98.0346 116.337 97.6404 116.415 97.2424 116.415V116.415Z" fill="#FAE20F"/>
</svg>
