<svg width="200" height="198" viewBox="0 0 200 198" fill="none" xmlns="http://www.w3.org/2000/svg">
<path d="M45.6522 96.8105C27.6701 96.8105 13.0433 82.0821 13.0433 63.9746C13.0433 45.8672 27.6701 31.1388 45.6522 31.1388C63.6343 31.1388 78.2612 45.8672 78.2612 63.9746C78.2612 82.0821 63.6343 96.8105 45.6522 96.8105ZM45.6522 39.8955C32.4686 39.8955 21.7388 50.7 21.7388 63.9746C21.7388 77.2493 32.4686 88.0537 45.6522 88.0537C58.8358 88.0537 69.5657 77.2493 69.5657 63.9746C69.5657 50.7 58.8358 39.8955 45.6522 39.8955Z" fill="#FAE20F"/>
<path d="M130.434 96.8105C104.063 96.8105 82.609 75.206 82.609 48.6508C82.609 22.0955 104.063 0.492554 130.434 0.492554C156.806 0.492554 178.26 22.097 178.26 48.6523C178.26 75.2075 156.806 96.8105 130.434 96.8105V96.8105ZM130.434 9.24927C108.857 9.24927 91.3045 26.9239 91.3045 48.6523C91.3045 70.3806 108.857 88.0552 130.434 88.0552C152.012 88.0552 169.564 70.3806 169.564 48.6523C169.564 26.9239 152.012 9.24927 130.434 9.24927V9.24927Z" fill="#FAE20F"/>
<path d="M152.175 162.482H26.0866C25.5136 162.48 24.9466 162.366 24.4179 162.145C23.8893 161.924 23.4094 161.601 23.0056 161.194C22.6018 160.788 22.2821 160.306 22.0648 159.775C21.8474 159.245 21.7366 158.677 21.7388 158.105V96.8105H30.4343V153.725H147.825V96.8105H156.521V158.105C156.523 158.677 156.413 159.245 156.196 159.775C155.979 160.306 155.659 160.788 155.255 161.195C154.852 161.601 154.372 161.924 153.843 162.145C153.315 162.366 152.748 162.481 152.175 162.482V162.482Z" fill="#FAE20F"/>
<path d="M91.3045 158.104V197.507H82.609V158.104H91.3045Z" fill="#FAE20F"/>
<path d="M65.2179 197.507H56.5224V193.13C56.5224 191.967 56.9806 190.855 57.7955 190.034L79.5343 168.143C79.9367 167.737 80.4156 167.415 80.9434 167.195C81.4711 166.975 82.0372 166.861 82.609 166.861H86.9567V175.618H84.409L65.2179 194.943V197.507Z" fill="#FAE20F"/>
<path d="M117.391 197.507H108.696V194.942L89.5045 175.616H86.9567V166.86H91.3045C92.4597 166.86 93.5627 167.321 94.3791 168.142L116.118 190.033C116.933 190.854 117.391 191.966 117.391 193.128V197.507Z" fill="#FAE20F"/>
<path d="M17.391 140.593H4.34776C3.77479 140.591 3.20778 140.476 2.67913 140.255C2.15049 140.034 1.67057 139.711 1.2668 139.305C0.863032 138.898 0.543333 138.416 0.325969 137.886C0.108605 137.356 -0.00215923 136.788 4.66394e-07 136.215V114.324C-0.00215923 113.751 0.108605 113.183 0.325969 112.653C0.543333 112.123 0.863032 111.641 1.2668 111.234C1.67057 110.828 2.15049 110.505 2.67913 110.284C3.20778 110.063 3.77479 109.948 4.34776 109.946H17.391V118.703H8.69552V131.837H17.391V140.593Z" fill="#FAE20F"/>
<path d="M195.652 158.104H191.304C190.63 158.104 189.963 157.946 189.36 157.643L164.19 144.97H160.869V136.213H165.216C165.891 136.213 166.558 136.372 167.161 136.675L191.303 148.83V101.706L167.161 113.861C166.558 114.164 165.892 114.322 165.216 114.322H160.869V105.567H164.19L189.36 92.894C189.963 92.5909 190.629 92.433 191.304 92.4328H195.652C196.225 92.4346 196.792 92.5492 197.321 92.7702C197.85 92.9912 198.329 93.3142 198.733 93.7207C199.137 94.1273 199.457 94.6094 199.674 95.1395C199.891 95.6697 200.002 96.2375 200 96.8104V153.725C200.002 154.298 199.892 154.866 199.674 155.397C199.457 155.927 199.138 156.409 198.734 156.816C198.33 157.223 197.85 157.546 197.321 157.767C196.792 157.988 196.225 158.103 195.652 158.104Z" fill="#FAE20F"/>
<path d="M69.5642 109.945V118.702H39.1298V109.945H69.5642Z" fill="#FAE20F"/>
<path d="M86.9567 109.945V118.702H78.2612V109.945H86.9567Z" fill="#FAE20F"/>
<path d="M200 88.0552V96.8119H191.304V88.0552H200Z" fill="#FAE20F"/>
<path d="M200 153.727V162.484H191.304V153.727H200Z" fill="#FAE20F"/>
</svg>
