<svg width="200" height="160" viewBox="0 0 200 160" fill="none" xmlns="http://www.w3.org/2000/svg">
<path d="M195.833 121.65H4.16691C3.61972 121.651 3.07782 121.543 2.57219 121.334C2.06656 121.125 1.60711 120.818 1.22012 120.431C0.833135 120.044 0.526186 119.585 0.316829 119.08C0.107471 118.574 -0.00018896 118.032 2.48961e-07 117.485V5.02877C-0.00018896 4.48158 0.107471 3.93972 0.316829 3.43416C0.526186 2.9286 0.833135 2.46927 1.22012 2.08241C1.60711 1.69556 2.06656 1.38877 2.57219 1.17958C3.07782 0.970402 3.61972 0.862927 4.16691 0.863305H195.833C196.38 0.862927 196.922 0.970402 197.428 1.17958C197.933 1.38877 198.393 1.69556 198.78 2.08241C199.167 2.46927 199.474 2.9286 199.683 3.43416C199.893 3.93972 200 4.48158 200 5.02877V117.486C200 118.033 199.892 118.575 199.683 119.081C199.473 119.586 199.166 120.045 198.779 120.432C198.392 120.818 197.933 121.125 197.427 121.334C196.922 121.543 196.38 121.651 195.833 121.65V121.65ZM8.33381 113.321H191.668V9.1928H8.33381V113.321Z" fill="#FAE20F"/>
<path d="M83.3338 92.495C82.7865 92.4957 82.2445 92.3885 81.7386 92.1795C81.2328 91.9704 80.7733 91.6636 80.3862 91.2767C79.9991 90.8898 79.6922 90.4303 79.483 89.9246C79.2737 89.4188 79.1663 88.8768 79.1669 88.3295V38.3496C79.1669 36.8489 79.9727 35.4633 81.2791 34.7252C81.9207 34.3604 82.6477 34.1731 83.3856 34.1825C84.1235 34.1918 84.8456 34.3975 85.4777 34.7784L127.144 59.7684C127.76 60.1388 128.27 60.6623 128.624 61.2881C128.978 61.9139 129.164 62.6206 129.164 63.3396C129.164 64.0585 128.978 64.7652 128.624 65.391C128.27 66.0168 127.76 66.5404 127.144 66.9108L85.4777 91.9007C84.8303 92.2899 84.0892 92.4953 83.3338 92.495V92.495ZM87.4993 45.705V80.9741L116.902 63.3396L87.4993 45.705Z" fill="#FAE20F"/>
<path d="M200 138.311V146.64H75V138.311H200Z" fill="#FAE20F"/>
<path d="M54.1669 159.137C44.9755 159.137 37.5007 151.663 37.5007 142.476C37.5007 133.289 44.9755 125.816 54.1669 125.816C63.3583 125.816 70.8331 133.289 70.8331 142.476C70.8331 151.663 63.3583 159.137 54.1669 159.137ZM54.1669 134.147C49.5727 134.147 45.8331 137.882 45.8331 142.476C45.8331 147.071 49.5727 150.806 54.1669 150.806C58.7612 150.806 62.5007 147.071 62.5007 142.476C62.5007 137.882 58.7612 134.147 54.1669 134.147Z" fill="#FAE20F"/>
<path d="M33.3338 138.311V146.64H0V138.311H33.3338Z" fill="#FAE20F"/>
</svg>
